<?xml version="1.0" encoding="UTF-8"?>
<svg id="Layer_2" data-name="Layer 2" xmlns="http://www.w3.org/2000/svg" width="741.59" height="471.57" viewBox="0 0 741.59 471.57">
  <g id="Icons">
    <g>
      <path d="M737.18,445.26L454.41,158.06c-2.68-2.72-4.35-6.36-4.37-10.18V31.25c0-17.26-13.99-31.25-31.25-31.25h-96c-17.26,0-31.25,13.99-31.25,31.25v116.62c-.02,3.82-1.69,7.46-4.37,10.18L4.4,445.26c-2.99,3.04-4.68,7.2-4.36,11.46.61,7.89,7.1,14.85,16.01,14.85h709.49c8.91,0,15.4-6.96,16.01-14.85.33-4.25-1.37-8.42-4.36-11.46h-.01ZM367.79,172.33c12.1,0,21.91,6.02,21.91,13.44,0,.37-.03.73-.08,1.09.05.37.08.74.08,1.12,0,7.62-9.81,13.79-21.91,13.79s-21.91-6.18-21.91-13.79c0-.38.03-.75.08-1.12-.05-.36-.08-.72-.08-1.09,0-7.43,9.81-13.44,21.91-13.44ZM367.79,230.97c25.62,0,46.39,10.95,46.39,24.46,0,.23,0,.46-.02.68-.05.86-.06,1.73,0,2.59.02.24.02.49.02.74,0,13.86-20.77,25.09-46.39,25.09s-46.39-11.23-46.39-25.09c0-.25,0-.49.02-.74.05-.86.05-1.73,0-2.59-.01-.23-.02-.46-.02-.68,0-13.51,20.77-24.46,46.39-24.46h0ZM367.79,423.13c-42.56,0-77.06-22.8-77.06-50.92,0-.79.04-1.57.1-2.35s.06-1.5,0-2.24-.09-1.5-.09-2.26c0-27.41,34.5-49.63,77.06-49.63s77.06,22.22,77.06,49.63c0,.76-.04,1.51-.09,2.26s-.06,1.5,0,2.24.1,1.56.1,2.35c0,28.12-34.5,50.92-77.06,50.92h-.02Z" style="fill: #0f0040;"/>
      <g>
        <path d="M444.65,368.93c-2.7,25.83-36.07,46.25-76.86,46.25s-74.15-20.42-76.86-46.25c-.12,1.15-.2,2.3-.2,3.47,0,28.12,34.5,50.92,77.06,50.92s77.06-22.8,77.06-50.92c0-1.17-.08-2.32-.2-3.47h0Z" style="fill: #ed1233;"/>
        <path d="M367.79,280.07c-24.35,0-44.31-9.9-46.22-22.48-.1.67-.16,1.35-.16,2.03,0,13.86,20.77,25.09,46.39,25.09s46.39-11.23,46.39-25.09c0-.68-.06-1.36-.16-2.03-1.91,12.58-21.87,22.48-46.22,22.48h-.02Z" style="fill: #ed1233;"/>
        <path d="M367.79,199.4c-11.5,0-20.92-5.44-21.83-12.36-.05.37-.08.74-.08,1.12,0,7.62,9.81,13.79,21.91,13.79s21.91-6.18,21.91-13.79c0-.38-.03-.75-.08-1.12-.9,6.92-10.33,12.36-21.83,12.36h0Z" style="fill: #ed1233;"/>
      </g>
    </g>
  </g>
</svg>