<?xml version="1.0" encoding="UTF-8"?>
<svg id="Layer_2" data-name="Layer 2" xmlns="http://www.w3.org/2000/svg" width="740.9" height="471.56" viewBox="0 0 740.9 471.56">
  <g id="Icons">
    <g>
      <path d="M736.2,444.61L451.84,155.79c-1.4-2.43-2.14-5.19-2.14-8V16.03c0-8.85-7.18-16.03-16.03-16.03h-126.44c-8.85,0-16.03,7.18-16.03,16.03v131.77c0,2.81-.74,5.57-2.14,8L4.69,444.61c-6.28,6.38-6.34,16.87.31,22.87,2.77,2.5,6.47,4.08,10.7,4.08h709.49c4.24,0,7.93-1.58,10.7-4.08,6.65-6,6.59-16.49.31-22.87ZM367.45,172.33c12.1,0,21.91,6.02,21.91,13.44,0,.37-.03.73-.08,1.09.05.37.08.74.08,1.12,0,7.62-9.81,13.79-21.91,13.79s-21.91-6.18-21.91-13.79c0-.38.03-.75.08-1.12-.05-.36-.08-.72-.08-1.09,0-7.43,9.81-13.44,21.91-13.44ZM367.45,230.97c25.62,0,46.39,10.95,46.39,24.46,0,.67-.06,1.33-.16,1.98.1.67.16,1.35.16,2.03,0,13.86-20.77,25.09-46.39,25.09s-46.39-11.23-46.39-25.09c0-.68.06-1.36.16-2.03-.1-.65-.16-1.31-.16-1.98,0-13.51,20.77-24.46,46.39-24.46ZM367.45,423.13c-42.56,0-77.06-22.8-77.06-50.92,0-1.17.08-2.32.2-3.47-.12-1.12-.2-2.25-.2-3.38,0-27.41,34.5-49.63,77.06-49.63s77.06,22.22,77.06,49.63c0,1.14-.08,2.26-.2,3.38.12,1.15.2,2.3.2,3.47,0,28.12-34.5,50.92-77.06,50.92Z" style="fill: #f7f0ea;"/>
      <g>
        <path d="M444.31,368.93c-2.7,25.83-36.07,46.25-76.86,46.25s-74.15-20.42-76.86-46.25c-.12,1.15-.2,2.3-.2,3.47,0,28.12,34.5,50.92,77.06,50.92s77.06-22.8,77.06-50.92c0-1.17-.08-2.32-.2-3.47h0Z" style="fill: #ed1233;"/>
        <path d="M367.45,280.07c-24.35,0-44.31-9.9-46.22-22.48-.1.67-.16,1.35-.16,2.03,0,13.86,20.77,25.09,46.39,25.09s46.39-11.23,46.39-25.09c0-.68-.06-1.36-.16-2.03-1.91,12.58-21.87,22.48-46.22,22.48h-.02Z" style="fill: #ed1233;"/>
        <path d="M367.45,199.4c-11.5,0-20.92-5.44-21.83-12.36-.05.37-.08.74-.08,1.12,0,7.62,9.81,13.79,21.91,13.79s21.91-6.18,21.91-13.79c0-.38-.03-.75-.08-1.12-.9,6.92-10.33,12.36-21.83,12.36h0Z" style="fill: #ed1233;"/>
      </g>
    </g>
  </g>
</svg>