<?xml version="1.0" encoding="UTF-8"?>
<svg id="Layer_2" data-name="Layer 2" xmlns="http://www.w3.org/2000/svg" width="741.59" height="471.57" viewBox="0 0 741.59 471.57">
  <g id="Icons">
    <g>
      <g>
        <path d="M16.05,469.06c-8.15,0-13.05-6.46-13.51-12.54-.26-3.42,1.07-6.89,3.65-9.51L288.95,159.82c3.26-3.31,5.07-7.54,5.09-11.92V31.25c0-15.85,12.9-28.75,28.75-28.75h96c15.85,0,28.75,12.9,28.75,28.75v116.54c.02,4.48,1.83,8.71,5.09,12.02l282.77,287.19c2.58,2.62,3.91,6.09,3.65,9.51-.47,6.08-5.36,12.54-13.51,12.54H16.05ZM367.79,313.22c-43.87,0-79.56,23.39-79.56,52.13,0,.77.03,1.58.1,2.46.05.62.05,1.24,0,1.86-.07.92-.1,1.75-.1,2.54,0,29.46,35.69,53.42,79.56,53.42s79.56-23.96,79.56-53.42c0-.81-.03-1.64-.1-2.54-.05-.61-.05-1.24,0-1.85.07-.88.1-1.68.1-2.46,0-28.75-35.69-52.13-79.56-52.13h0ZM367.79,228.47c-27.41,0-48.89,11.84-48.89,26.96,0,.28,0,.56.03.85.05.77.05,1.53,0,2.27-.02.3-.03.59-.03.89,0,15.47,21.47,27.59,48.89,27.59s48.89-12.12,48.89-27.59c0-.3,0-.6-.03-.9-.05-.74-.05-1.5,0-2.28.02-.28.03-.56.03-.84,0-15.12-21.47-26.96-48.89-26.96h0ZM343.45,186.86c-.04.39-.06.76-.06,1.11,0,9.14,10.72,16.29,24.41,16.29s24.41-7.16,24.41-16.29c0-.36-.02-.72-.06-1.11.04-.38.06-.74.06-1.09,0-8.94-10.72-15.94-24.41-15.94s-24.41,7-24.41,15.94c0,.35.02.71.06,1.09Z" style="fill: #ed1233;"/>
        <path d="M418.79,5c14.48,0,26.25,11.78,26.25,26.25v116.66c.03,5.03,2.09,9.89,5.81,13.66l282.77,287.19c2.07,2.11,3.14,4.86,2.94,7.57-.38,4.96-4.37,10.23-11.02,10.23H16.05c-6.65,0-10.64-5.27-11.02-10.23-.21-2.7.86-5.46,2.94-7.57L290.73,161.57c3.72-3.78,5.78-8.63,5.81-13.65V31.26c0-14.48,11.78-26.25,26.25-26.25h96M340.93,186.86c-.03.38-.05.75-.05,1.11,0,10.54,11.82,18.79,26.91,18.79s26.91-8.25,26.91-18.79c0-.36-.02-.73-.05-1.11.03-.38.05-.74.05-1.09,0-10.34-11.82-18.44-26.91-18.44s-26.91,8.1-26.91,18.44c0,.36.02.72.05,1.09M367.79,289.52c28.82,0,51.39-13.22,51.39-30.09,0-.35-.01-.7-.03-1.05-.04-.63-.04-1.3,0-1.96.02-.33.03-.66.03-1,0-16.52-22.57-29.46-51.39-29.46s-51.39,12.94-51.39,29.46c0,.33.01.67.03.99.04.67.04,1.33,0,1.97-.02.35-.03.7-.03,1.05,0,16.87,22.57,30.09,51.39,30.09M367.79,428.13v-5,5c21.55,0,41.88-5.59,57.24-15.74,16-10.57,24.81-24.84,24.81-40.18,0-.86-.04-1.76-.11-2.74-.04-.48-.04-.98,0-1.47.07-.94.11-1.81.11-2.65,0-15.02-8.83-28.97-24.86-39.3-15.35-9.89-35.66-15.33-57.2-15.33s-41.84,5.45-57.2,15.33c-16.03,10.33-24.86,24.28-24.86,39.3,0,.84.04,1.71.11,2.65.04.49.04.99,0,1.47-.07.98-.11,1.87-.11,2.73,0,15.34,8.81,29.6,24.81,40.18,15.36,10.15,35.69,15.74,57.24,15.74M418.79,0h-96c-17.26,0-31.25,13.99-31.25,31.25v116.62c-.02,3.82-1.69,7.46-4.37,10.18L4.4,445.26c-2.99,3.04-4.68,7.2-4.36,11.46.61,7.89,7.1,14.85,16.01,14.85h709.49c8.91,0,15.4-6.96,16.01-14.85.33-4.25-1.37-8.42-4.36-11.46L454.41,158.06c-2.68-2.72-4.35-6.36-4.37-10.18V31.25c0-17.26-13.99-31.25-31.25-31.25h0ZM367.79,201.77c-12.1,0-21.91-6.18-21.91-13.79,0-.38.03-.75.08-1.12-.05-.36-.08-.72-.08-1.09,0-7.43,9.81-13.44,21.91-13.44s21.91,6.02,21.91,13.44c0,.37-.03.73-.08,1.09.05.37.08.74.08,1.12,0,7.62-9.81,13.79-21.91,13.79h0ZM367.79,284.52c-25.62,0-46.39-11.23-46.39-25.09,0-.25,0-.49.02-.73.05-.86.05-1.73,0-2.59-.01-.23-.02-.46-.02-.68,0-13.51,20.77-24.46,46.39-24.46s46.39,10.95,46.39,24.46c0,.23,0,.46-.02.68-.05.86-.06,1.73,0,2.59.02.24.02.49.02.74,0,13.86-20.77,25.09-46.39,25.09h0ZM367.79,423.13c-42.56,0-77.06-22.8-77.06-50.92,0-.79.04-1.57.1-2.35.06-.75.06-1.5,0-2.24-.06-.75-.09-1.5-.09-2.26,0-27.41,34.5-49.63,77.06-49.63s77.06,22.22,77.06,49.63c0,.76-.04,1.51-.09,2.26-.06.75-.06,1.5,0,2.24.06.78.1,1.56.1,2.35,0,28.12-34.5,50.92-77.06,50.92h-.02Z" style="fill: #0f0040;"/>
      </g>
      <g>
        <path d="M444.65,368.93c-2.7,25.83-36.07,46.25-76.86,46.25s-74.15-20.42-76.86-46.25c-.12,1.15-.2,2.3-.2,3.47,0,28.12,34.5,50.92,77.06,50.92s77.06-22.8,77.06-50.92c0-1.17-.08-2.32-.2-3.47h0Z" style="fill: #0f0040;"/>
        <path d="M367.79,280.07c-24.35,0-44.31-9.9-46.22-22.48-.1.67-.16,1.35-.16,2.03,0,13.86,20.77,25.09,46.39,25.09s46.39-11.23,46.39-25.09c0-.68-.06-1.36-.16-2.03-1.91,12.58-21.87,22.48-46.22,22.48h-.02Z" style="fill: #0f0040;"/>
        <path d="M367.79,199.4c-11.5,0-20.92-5.44-21.83-12.36-.05.37-.08.74-.08,1.12,0,7.62,9.81,13.79,21.91,13.79s21.91-6.18,21.91-13.79c0-.38-.03-.75-.08-1.12-.9,6.92-10.33,12.36-21.83,12.36h0Z" style="fill: #0f0040;"/>
      </g>
    </g>
  </g>
</svg>