<?xml version="1.0" encoding="UTF-8"?>
<svg id="Layer_2" data-name="Layer 2" xmlns="http://www.w3.org/2000/svg" width="741.58" height="683.92" viewBox="0 0 741.58 683.92">
  <g id="Logos">
    <g>
      <g>
        <g>
          <path d="M0,631.17v-113.48h56.96v26.68h-26.31v16.54h23.59v25.65h-23.59v17.35h26.31v27.27H0Z" style="fill: #f7f0ea;"/>
          <path d="M147.07,631.17h-34.03l-5.66-16.17c-1.81-4.95-3.28-9.7-4.41-14.26-1.08,4.51-2.7,9.68-4.85,15.51l-5.66,14.92h-33.37l27.56-58.87-26.02-54.61h34.1l5.07,15.36c.54,1.42,1.07,3.09,1.58,5,.51,1.91,1.04,4.07,1.58,6.47,1.22-4.9,2.25-8.67,3.09-11.32l4.7-15.51h34.32l-25.87,54.61,27.86,58.87Z" style="fill: #f7f0ea;"/>
          <path d="M179.64,631.17h-30.65v-113.48h29.69c14.8,0,25.77,3.01,32.93,9.04,8.43,7.11,12.64,16.98,12.64,29.62,0,13.77-4.48,24.03-13.45,30.8-6.13,4.56-14.92,6.84-26.39,6.84h-4.78v37.19ZM179.64,568.47l1.4.07c3.72,0,6.69-1.14,8.89-3.42s3.31-5.4,3.31-9.37-1.08-7.1-3.23-9.55c-2.16-2.5-4.9-3.75-8.23-3.75h-2.13v26.02Z" style="fill: #f7f0ea;"/>
          <path d="M225.95,631.17v-113.48h56.96v26.68h-26.31v16.54h23.59v25.65h-23.59v17.35h26.31v27.27h-56.96Z" style="fill: #f7f0ea;"/>
          <path d="M367.66,631.17h-33.15l-15.14-40.42c-.15-.69-.41-1.59-.77-2.72-.37-1.13-.82-2.47-1.36-4.04l.22,7.5v39.69h-30.5v-113.48h31.38c13.82,0,24.16,2.72,31.02,8.16,8.72,6.96,13.08,16.86,13.08,29.69,0,13.72-5.86,23.2-17.57,28.44l22.78,47.19ZM317.61,570.24h2.06c3.53,0,6.47-1.35,8.82-4.04,2.35-2.69,3.53-6.12,3.53-10.29,0-8.48-4.43-12.72-13.3-12.72h-1.1v27.05Z" style="fill: #f7f0ea;"/>
          <path d="M402.43,631.17h-30.65v-113.48h30.65v113.48Z" style="fill: #f7f0ea;"/>
          <path d="M526.06,631.17h-32.04l-2.28-51.74-.95-20.65c-.34,3.97-.74,7.75-1.18,11.36-.44,3.6-.98,7.09-1.62,10.47l-9.63,50.57h-24.99l-8.23-50.64c-.49-2.94-1.15-7.99-1.98-15.14-.1-1.08-.32-3.28-.66-6.61l-.73,20.95-2.72,51.45h-32.63l13.23-113.48h38.14l6.39,38.22c.54,3.14,1.02,6.54,1.43,10.22s.8,7.67,1.14,11.98c.64-7.2,1.52-13.65,2.65-19.33l7.79-41.09h37.85l11.03,113.48Z" style="fill: #f7f0ea;"/>
          <path d="M530.63,631.17v-113.48h56.96v26.68h-26.31v16.54h23.59v25.65h-23.59v17.35h26.31v27.27h-56.96Z" style="fill: #f7f0ea;"/>
          <path d="M594.65,631.17v-113.48h29.25l15.36,39.84c.83,2.35,1.78,5.05,2.83,8.08,1.05,3.04,2.22,6.54,3.49,10.51l3.16,10c-1.13-9.85-1.98-18.28-2.57-25.28-.59-7.01-.88-12.89-.88-17.64v-25.5h29.25v113.48h-29.25l-15.43-41.75c-1.62-4.46-3.07-8.64-4.37-12.53-1.3-3.9-2.44-7.61-3.42-11.13.64,7.99,1.1,14.95,1.4,20.87.29,5.93.44,11.12.44,15.58v28.96h-29.25Z" style="fill: #f7f0ea;"/>
          <path d="M724.01,631.17h-30.65v-86.29h-16.9v-27.19h65.12v27.19h-17.57v86.29Z" style="fill: #f7f0ea;"/>
        </g>
        <g>
          <g>
            <path d="M0,651.16h3.39v22.05h12.56v2.98H0v-25.04Z" style="fill: #f7f0ea;"/>
            <path d="M27.91,665.15c.7-.09,1.18-.39,1.41-.88.14-.27.2-.67.2-1.18,0-1.05-.37-1.81-1.11-2.28-.74-.47-1.81-.71-3.19-.71-1.6,0-2.73.43-3.4,1.3-.37.48-.62,1.19-.73,2.14h-2.86c.06-2.26.79-3.83,2.19-4.71,1.4-.88,3.03-1.32,4.88-1.32,2.15,0,3.89.41,5.23,1.23,1.33.82,1.99,2.09,1.99,3.82v10.52c0,.32.07.57.2.77s.41.29.83.29c.14,0,.29,0,.46-.03s.35-.04.55-.08v2.27c-.48.14-.84.22-1.09.26-.25.03-.59.05-1.02.05-1.06,0-1.82-.37-2.3-1.12-.25-.4-.43-.96-.53-1.69-.62.82-1.52,1.53-2.69,2.13-1.17.6-2.46.9-3.87.9-1.69,0-3.08-.51-4.15-1.54s-1.61-2.31-1.61-3.86c0-1.69.53-3,1.58-3.93s2.44-1.5,4.16-1.72l4.89-.61ZM21.45,673.44c.65.51,1.41.77,2.3.77,1.08,0,2.12-.25,3.14-.75,1.7-.83,2.56-2.18,2.56-4.07v-2.47c-.37.24-.86.44-1.45.6-.59.16-1.17.27-1.73.34l-1.85.24c-1.11.15-1.95.38-2.51.7-.95.53-1.42,1.38-1.42,2.55,0,.88.32,1.58.97,2.09Z" style="fill: #f7f0ea;"/>
            <path d="M48.73,658.92c1.29,1,2.07,2.72,2.33,5.16h-2.98c-.18-1.12-.6-2.06-1.24-2.8s-1.69-1.12-3.12-1.12c-1.95,0-3.35.95-4.19,2.86-.55,1.24-.82,2.76-.82,4.58s.39,3.36,1.16,4.61c.77,1.25,1.99,1.87,3.65,1.87,1.27,0,2.28-.39,3.02-1.16s1.26-1.84,1.54-3.18h2.98c-.34,2.42-1.19,4.19-2.56,5.31s-3.11,1.68-5.23,1.68c-2.39,0-4.29-.87-5.71-2.62-1.42-1.74-2.13-3.92-2.13-6.54,0-3.2.78-5.7,2.33-7.48,1.56-1.78,3.54-2.68,5.95-2.68,2.06,0,3.73.5,5.02,1.5Z" style="fill: #f7f0ea;"/>
            <path d="M53.33,657.95h2.91v3.15c.24-.61.82-1.36,1.76-2.24.93-.88,2.01-1.32,3.22-1.32.06,0,.15,0,.29.02.14.01.37.03.7.07v3.24c-.18-.03-.35-.06-.5-.07-.15-.01-.32-.02-.5-.02-1.55,0-2.73.5-3.56,1.49-.83.99-1.24,2.14-1.24,3.43v10.5h-3.07v-18.25Z" style="fill: #f7f0ea;"/>
            <path d="M77.22,659.77c1.61,1.57,2.42,3.87,2.42,6.91s-.71,5.37-2.13,7.29c-1.42,1.92-3.63,2.88-6.62,2.88-2.49,0-4.47-.85-5.94-2.55-1.47-1.7-2.2-3.98-2.2-6.84,0-3.07.77-5.51,2.32-7.32,1.55-1.82,3.62-2.72,6.23-2.72,2.34,0,4.31.78,5.92,2.35ZM75.32,671.9c.75-1.54,1.12-3.25,1.12-5.13,0-1.7-.27-3.09-.81-4.15-.85-1.68-2.33-2.52-4.42-2.52-1.85,0-3.2.71-4.04,2.15-.84,1.43-1.26,3.15-1.26,5.17s.42,3.56,1.26,4.85c.84,1.29,2.18,1.94,4.01,1.94,2.01,0,3.39-.77,4.14-2.31Z" style="fill: #f7f0ea;"/>
            <path d="M84.36,670.47c.09,1.02.35,1.81.78,2.35.79.99,2.16,1.48,4.11,1.48,1.16,0,2.18-.25,3.06-.74s1.32-1.26,1.32-2.29c0-.78-.35-1.38-1.06-1.79-.45-.25-1.34-.54-2.67-.87l-2.48-.61c-1.58-.39-2.75-.82-3.5-1.3-1.34-.83-2.01-1.98-2.01-3.44,0-1.73.63-3.12,1.89-4.19,1.26-1.07,2.96-1.6,5.09-1.6,2.79,0,4.8.81,6.03,2.42.77,1.02,1.15,2.12,1.12,3.31h-2.9c-.06-.69-.31-1.32-.75-1.88-.72-.8-1.97-1.2-3.75-1.2-1.19,0-2.08.22-2.7.66s-.92,1.02-.92,1.75c0,.79.4,1.43,1.2,1.9.46.28,1.15.53,2.05.75l2.07.49c2.25.53,3.75,1.05,4.51,1.55,1.19.78,1.79,2.02,1.79,3.7s-.62,3.03-1.87,4.21c-1.25,1.18-3.15,1.77-5.7,1.77-2.75,0-4.7-.62-5.84-1.85s-1.76-2.76-1.84-4.58h2.95Z" style="fill: #f7f0ea;"/>
            <path d="M100.94,670.47c.09,1.02.35,1.81.78,2.35.79.99,2.16,1.48,4.11,1.48,1.16,0,2.18-.25,3.06-.74s1.32-1.26,1.32-2.29c0-.78-.35-1.38-1.06-1.79-.45-.25-1.34-.54-2.67-.87l-2.48-.61c-1.58-.39-2.75-.82-3.5-1.3-1.34-.83-2.01-1.98-2.01-3.44,0-1.73.63-3.12,1.89-4.19,1.26-1.07,2.96-1.6,5.09-1.6,2.79,0,4.8.81,6.03,2.42.77,1.02,1.15,2.12,1.12,3.31h-2.9c-.06-.69-.31-1.32-.75-1.88-.72-.8-1.97-1.2-3.75-1.2-1.19,0-2.08.22-2.7.66s-.92,1.02-.92,1.75c0,.79.4,1.43,1.2,1.9.46.28,1.15.53,2.05.75l2.07.49c2.25.53,3.75,1.05,4.51,1.55,1.19.78,1.79,2.02,1.79,3.7s-.62,3.03-1.87,4.21c-1.25,1.18-3.15,1.77-5.7,1.77-2.75,0-4.7-.62-5.84-1.85s-1.76-2.76-1.84-4.58h2.95Z" style="fill: #f7f0ea;"/>
            <path d="M126.97,658.45c1.21.61,2.13,1.39,2.76,2.36.61.92,1.02,1.99,1.22,3.22.18.84.27,2.18.27,4.02h-13.28c.06,1.86.49,3.35,1.3,4.47.81,1.12,2.07,1.68,3.77,1.68,1.59,0,2.86-.53,3.81-1.59.53-.62.91-1.33,1.13-2.14h3.02c-.08.67-.34,1.42-.79,2.24-.45.82-.95,1.5-1.5,2.02-.93.91-2.07,1.52-3.43,1.84-.73.18-1.56.27-2.49.27-2.26,0-4.17-.83-5.74-2.48s-2.35-3.97-2.35-6.95.79-5.31,2.37-7.14c1.58-1.83,3.65-2.74,6.2-2.74,1.29,0,2.53.3,3.74.91ZM128.07,665.62c-.12-1.33-.41-2.39-.86-3.19-.83-1.48-2.22-2.22-4.17-2.22-1.4,0-2.57.51-3.51,1.53s-1.45,2.31-1.5,3.88h10.05Z" style="fill: #f7f0ea;"/>
            <path d="M161.06,651.16v2.98h-8.44v22.05h-3.43v-22.05h-8.44v-2.98h20.3Z" style="fill: #f7f0ea;"/>
            <path d="M161.7,657.95h2.91v3.15c.24-.61.82-1.36,1.76-2.24.93-.88,2.01-1.32,3.22-1.32.06,0,.15,0,.29.02.14.01.37.03.7.07v3.24c-.18-.03-.35-.06-.5-.07-.15-.01-.32-.02-.5-.02-1.55,0-2.73.5-3.56,1.49-.83.99-1.24,2.14-1.24,3.43v10.5h-3.07v-18.25Z" style="fill: #f7f0ea;"/>
            <path d="M182.15,665.15c.7-.09,1.18-.39,1.41-.88.14-.27.2-.67.2-1.18,0-1.05-.37-1.81-1.11-2.28-.74-.47-1.81-.71-3.19-.71-1.6,0-2.73.43-3.4,1.3-.37.48-.62,1.19-.73,2.14h-2.86c.06-2.26.79-3.83,2.19-4.71,1.4-.88,3.03-1.32,4.88-1.32,2.15,0,3.89.41,5.23,1.23,1.33.82,1.99,2.09,1.99,3.82v10.52c0,.32.07.57.2.77s.41.29.83.29c.14,0,.29,0,.46-.03s.35-.04.55-.08v2.27c-.48.14-.84.22-1.09.26-.25.03-.59.05-1.02.05-1.06,0-1.82-.37-2.3-1.12-.25-.4-.43-.96-.53-1.69-.62.82-1.52,1.53-2.69,2.13-1.17.6-2.46.9-3.87.9-1.69,0-3.08-.51-4.15-1.54s-1.61-2.31-1.61-3.86c0-1.69.53-3,1.58-3.93s2.44-1.5,4.16-1.72l4.89-.61ZM175.69,673.44c.65.51,1.41.77,2.3.77,1.08,0,2.12-.25,3.14-.75,1.7-.83,2.56-2.18,2.56-4.07v-2.47c-.37.24-.86.44-1.45.6-.59.16-1.17.27-1.73.34l-1.85.24c-1.11.15-1.95.38-2.51.7-.95.53-1.42,1.38-1.42,2.55,0,.88.32,1.58.97,2.09Z" style="fill: #f7f0ea;"/>
            <path d="M190.9,651.16h3.12v3.48h-3.12v-3.48ZM190.9,658.03h3.12v18.17h-3.12v-18.17Z" style="fill: #f7f0ea;"/>
            <path d="M197.79,657.95h2.91v2.59c.86-1.07,1.78-1.84,2.74-2.3s2.04-.7,3.22-.7c2.59,0,4.34.9,5.25,2.71.5.99.75,2.4.75,4.24v11.71h-3.12v-11.5c0-1.11-.16-2.01-.49-2.69-.55-1.14-1.53-1.7-2.97-1.7-.73,0-1.32.07-1.79.22-.84.25-1.58.75-2.22,1.5-.51.6-.84,1.23-1,1.87-.15.64-.23,1.56-.23,2.75v9.56h-3.07v-18.25Z" style="fill: #f7f0ea;"/>
            <path d="M216.32,651.16h3.12v3.48h-3.12v-3.48ZM216.32,658.03h3.12v18.17h-3.12v-18.17Z" style="fill: #f7f0ea;"/>
            <path d="M223.21,657.95h2.91v2.59c.86-1.07,1.78-1.84,2.74-2.3s2.04-.7,3.22-.7c2.59,0,4.34.9,5.25,2.71.5.99.75,2.4.75,4.24v11.71h-3.12v-11.5c0-1.11-.16-2.01-.49-2.69-.55-1.14-1.53-1.7-2.97-1.7-.73,0-1.32.07-1.79.22-.84.25-1.58.75-2.22,1.5-.51.6-.84,1.23-1,1.87-.15.64-.23,1.56-.23,2.75v9.56h-3.07v-18.25Z" style="fill: #f7f0ea;"/>
            <path d="M251.89,658.68c.58.4,1.17.98,1.77,1.74v-2.3h2.83v16.6c0,2.32-.34,4.15-1.02,5.49-1.27,2.48-3.66,3.72-7.18,3.72-1.96,0-3.61-.44-4.94-1.32s-2.08-2.26-2.24-4.13h3.12c.15.82.44,1.45.88,1.89.69.68,1.77,1.02,3.25,1.02,2.34,0,3.87-.83,4.59-2.49.43-.98.63-2.72.59-5.23-.61.93-1.35,1.63-2.21,2.08s-2,.68-3.41.68c-1.97,0-3.69-.7-5.17-2.1s-2.22-3.72-2.22-6.96c0-3.06.74-5.44,2.23-7.16,1.49-1.72,3.29-2.57,5.39-2.57,1.43,0,2.67.35,3.74,1.06ZM252.27,661.97c-.93-1.09-2.11-1.64-3.54-1.64-2.15,0-3.62,1.01-4.41,3.03-.42,1.08-.63,2.49-.63,4.24,0,2.06.42,3.62,1.25,4.69s1.95,1.61,3.35,1.61c2.19,0,3.74-.99,4.63-2.98.5-1.12.75-2.44.75-3.94,0-2.26-.46-3.94-1.39-5.03Z" style="fill: #f7f0ea;"/>
          </g>
          <g>
            <path d="M520.19,653.7h11.38c1.87,0,3.42.28,4.64.83,2.31,1.07,3.46,3.04,3.46,5.91,0,1.5-.31,2.73-.93,3.68-.62.95-1.49,1.72-2.6,2.3.98.4,1.71.92,2.21,1.57.49.65.77,1.7.83,3.15l.12,3.36c.03.95.11,1.66.24,2.13.2.8.57,1.31,1.09,1.53v.56h-4.16c-.11-.22-.2-.49-.27-.83-.07-.34-.13-1-.17-1.98l-.2-4.18c-.08-1.64-.67-2.73-1.77-3.29-.63-.31-1.62-.46-2.96-.46h-7.5v10.74h-3.39v-25.04ZM531.21,665.17c1.55,0,2.77-.32,3.67-.95s1.35-1.78,1.35-3.44c0-1.78-.63-3-1.89-3.65-.67-.34-1.57-.51-2.7-.51h-8.06v8.56h7.62Z" style="fill: #f7f0ea;"/>
            <path d="M543.71,653.7h3.12v3.48h-3.12v-3.48ZM543.71,660.57h3.12v18.17h-3.12v-18.17Z" style="fill: #f7f0ea;"/>
            <path d="M562.65,661.46c1.29,1,2.07,2.72,2.33,5.16h-2.98c-.18-1.12-.6-2.06-1.24-2.8s-1.69-1.12-3.12-1.12c-1.95,0-3.35.95-4.19,2.86-.55,1.24-.82,2.76-.82,4.58s.39,3.36,1.16,4.61c.77,1.25,1.99,1.87,3.65,1.87,1.27,0,2.28-.39,3.02-1.16s1.26-1.84,1.54-3.18h2.98c-.34,2.42-1.19,4.19-2.56,5.31s-3.11,1.68-5.23,1.68c-2.39,0-4.29-.87-5.71-2.62-1.42-1.74-2.13-3.92-2.13-6.54,0-3.2.78-5.7,2.33-7.48,1.56-1.78,3.54-2.68,5.95-2.68,2.06,0,3.73.5,5.02,1.5Z" style="fill: #f7f0ea;"/>
            <path d="M567.17,653.62h3.07v9.34c.73-.92,1.38-1.57,1.96-1.94.99-.65,2.22-.97,3.7-.97,2.65,0,4.44.93,5.39,2.78.51,1.01.77,2.41.77,4.21v11.71h-3.15v-11.5c0-1.34-.17-2.32-.51-2.95-.56-1-1.6-1.5-3.14-1.5-1.27,0-2.43.44-3.46,1.31-1.03.88-1.55,2.53-1.55,4.96v9.68h-3.07v-25.12Z" style="fill: #f7f0ea;"/>
            <path d="M585.71,660.49h3.03v2.59c.73-.9,1.39-1.55,1.98-1.96,1.01-.69,2.16-1.04,3.44-1.04,1.45,0,2.62.36,3.51,1.07.5.41.95,1.01,1.36,1.81.68-.98,1.48-1.7,2.4-2.17.92-.47,1.95-.71,3.1-.71,2.45,0,4.12.89,5.01,2.66.48.95.72,2.24.72,3.85v12.15h-3.19v-12.68c0-1.21-.3-2.05-.91-2.5-.61-.45-1.35-.68-2.22-.68-1.2,0-2.24.4-3.11,1.21-.87.81-1.3,2.15-1.3,4.04v10.62h-3.12v-11.91c0-1.24-.15-2.14-.44-2.71-.47-.85-1.33-1.28-2.61-1.28-1.16,0-2.21.45-3.16,1.35-.95.9-1.42,2.52-1.42,4.87v9.68h-3.07v-18.25Z" style="fill: #f7f0ea;"/>
            <path d="M627.13,662.31c1.61,1.57,2.42,3.87,2.42,6.91s-.71,5.37-2.13,7.29c-1.42,1.92-3.63,2.88-6.62,2.88-2.49,0-4.47-.85-5.94-2.55-1.47-1.7-2.2-3.98-2.2-6.84,0-3.07.77-5.51,2.32-7.32,1.55-1.82,3.62-2.72,6.23-2.72,2.34,0,4.31.78,5.92,2.35ZM625.23,674.44c.75-1.54,1.12-3.25,1.12-5.13,0-1.7-.27-3.09-.81-4.15-.85-1.68-2.33-2.52-4.42-2.52-1.85,0-3.2.71-4.04,2.15-.84,1.43-1.26,3.15-1.26,5.17s.42,3.56,1.26,4.85c.84,1.29,2.18,1.94,4.01,1.94,2.01,0,3.39-.77,4.14-2.31Z" style="fill: #f7f0ea;"/>
            <path d="M632.45,660.49h2.91v2.59c.86-1.07,1.78-1.84,2.74-2.3s2.04-.7,3.22-.7c2.59,0,4.34.9,5.25,2.71.5.99.75,2.4.75,4.24v11.71h-3.12v-11.5c0-1.11-.16-2.01-.49-2.69-.55-1.14-1.53-1.7-2.97-1.7-.73,0-1.32.07-1.79.22-.84.25-1.58.75-2.22,1.5-.51.6-.84,1.23-1,1.87-.15.64-.23,1.56-.23,2.75v9.56h-3.07v-18.25Z" style="fill: #f7f0ea;"/>
            <path d="M661.02,661.05c.54.34,1.16.94,1.85,1.79v-9.22h2.95v25.12h-2.76v-2.54c-.71,1.12-1.56,1.94-2.53,2.44-.97.5-2.09.75-3.34.75-2.03,0-3.78-.86-5.26-2.56-1.48-1.71-2.22-3.99-2.22-6.83,0-2.66.68-4.96,2.03-6.91s3.29-2.92,5.8-2.92c1.39,0,2.56.3,3.5.89ZM654.17,674.73c.82,1.32,2.15,1.98,3.97,1.98,1.41,0,2.57-.61,3.48-1.83.91-1.22,1.36-2.97,1.36-5.26s-.47-4.01-1.41-5.12c-.94-1.11-2.1-1.66-3.48-1.66-1.54,0-2.78.59-3.74,1.77-.96,1.18-1.43,2.92-1.43,5.21,0,1.95.41,3.59,1.24,4.91Z" style="fill: #f7f0ea;"/>
            <path d="M670.17,682.32c.78-.14,1.33-.69,1.65-1.66.17-.51.26-1.01.26-1.49,0-.08,0-.15,0-.21,0-.06-.02-.13-.04-.21h-1.86v-3.71h3.65v3.44c0,1.35-.27,2.54-.82,3.56-.55,1.02-1.49,1.65-2.83,1.89v-1.6Z" style="fill: #f7f0ea;"/>
            <path d="M689.57,653.7l7.19,21.32,7.11-21.32h3.8l-9.13,25.04h-3.6l-9.12-25.04h3.75Z" style="fill: #f7f0ea;"/>
            <path d="M714.7,653.7h3.83l9.08,25.04h-3.71l-2.54-7.5h-9.9l-2.71,7.5h-3.48l9.42-25.04ZM720.27,668.48l-3.8-11.06-4.04,11.06h7.84Z" style="fill: #f7f0ea;"/>
          </g>
        </g>
      </g>
      <g>
        <path d="M736.55,444.61L452.19,155.79c-1.4-2.43-2.14-5.19-2.14-8V16.03c0-8.85-7.18-16.03-16.03-16.03h-126.44c-8.85,0-16.03,7.18-16.03,16.03v131.77c0,2.81-.74,5.57-2.14,8L5.04,444.61c-6.28,6.38-6.34,16.87.31,22.87,2.77,2.5,6.47,4.08,10.7,4.08h709.49c4.24,0,7.93-1.58,10.7-4.08,6.65-6,6.59-16.49.31-22.87ZM367.8,172.33c12.1,0,21.91,6.02,21.91,13.44,0,.37-.03.73-.08,1.09.05.37.08.74.08,1.12,0,7.62-9.81,13.79-21.91,13.79s-21.91-6.18-21.91-13.79c0-.38.03-.75.08-1.12-.05-.36-.08-.72-.08-1.09,0-7.43,9.81-13.44,21.91-13.44ZM367.8,230.97c25.62,0,46.39,10.95,46.39,24.46,0,.67-.06,1.33-.16,1.98.1.67.16,1.35.16,2.03,0,13.86-20.77,25.09-46.39,25.09s-46.39-11.23-46.39-25.09c0-.68.06-1.36.16-2.03-.1-.65-.16-1.31-.16-1.98,0-13.51,20.77-24.46,46.39-24.46ZM367.8,423.13c-42.56,0-77.06-22.8-77.06-50.92,0-1.17.08-2.32.2-3.47-.12-1.12-.2-2.25-.2-3.38,0-27.41,34.5-49.63,77.06-49.63s77.06,22.22,77.06,49.63c0,1.14-.08,2.26-.2,3.38.12,1.15.2,2.3.2,3.47,0,28.12-34.5,50.92-77.06,50.92Z" style="fill: #f7f0ea;"/>
        <g>
          <path d="M444.66,368.93c-2.7,25.83-36.07,46.25-76.86,46.25s-74.15-20.42-76.86-46.25c-.12,1.15-.2,2.3-.2,3.47,0,28.12,34.5,50.92,77.06,50.92s77.06-22.8,77.06-50.92c0-1.17-.08-2.32-.2-3.47h0Z" style="fill: #ed1233;"/>
          <path d="M367.8,280.07c-24.35,0-44.31-9.9-46.22-22.48-.1.67-.16,1.35-.16,2.03,0,13.86,20.77,25.09,46.39,25.09s46.39-11.23,46.39-25.09c0-.68-.06-1.36-.16-2.03-1.91,12.58-21.87,22.48-46.22,22.48h-.02Z" style="fill: #ed1233;"/>
          <path d="M367.8,199.4c-11.5,0-20.92-5.44-21.83-12.36-.05.37-.08.74-.08,1.12,0,7.62,9.81,13.79,21.91,13.79s21.91-6.18,21.91-13.79c0-.38-.03-.75-.08-1.12-.9,6.92-10.33,12.36-21.83,12.36h0Z" style="fill: #ed1233;"/>
        </g>
      </g>
    </g>
  </g>
</svg>