<?xml version="1.0" encoding="UTF-8"?>
<svg id="Layer_2" data-name="Layer 2" xmlns="http://www.w3.org/2000/svg" width="523.29" height="124.9" viewBox="0 0 523.29 124.9">
  <g id="Wordmarks">
    <g>
      <g>
        <path d="M1.49,79.85V0h40.08v18.77h-18.51v11.64h16.6v18.05h-16.6v12.21h18.51v19.19H1.49Z" style="fill: #f7f0ea;"/>
        <path d="M104.97,79.85h-23.94l-3.98-11.38c-1.28-3.48-2.31-6.83-3.1-10.03-.76,3.17-1.9,6.81-3.41,10.91l-3.98,10.5h-23.48l19.39-41.42L44.15,0h24l3.57,10.81c.38,1,.75,2.17,1.11,3.52.36,1.34.73,2.86,1.11,4.55.86-3.45,1.59-6.1,2.17-7.96l3.31-10.91h24.15l-18.2,38.42,19.6,41.42Z" style="fill: #f7f0ea;"/>
        <path d="M127.89,79.85h-21.57V0h20.89c10.41,0,18.13,2.12,23.17,6.36,5.93,5,8.9,11.95,8.9,20.84,0,9.69-3.15,16.91-9.46,21.67-4.31,3.21-10.5,4.81-18.57,4.81h-3.36v26.17ZM127.89,35.74l.98.05c2.62,0,4.71-.8,6.26-2.41,1.55-1.6,2.33-3.8,2.33-6.59s-.76-5-2.28-6.72c-1.52-1.76-3.45-2.64-5.79-2.64h-1.5v18.31Z" style="fill: #f7f0ea;"/>
        <path d="M160.47,79.85V0h40.08v18.77h-18.51v11.64h16.6v18.05h-16.6v12.21h18.51v19.19h-40.08Z" style="fill: #f7f0ea;"/>
        <path d="M260.19,79.85h-23.32l-10.65-28.44c-.1-.48-.28-1.12-.54-1.91-.26-.79-.58-1.74-.96-2.84l.16,5.28v27.93h-21.46V0h22.08c9.72,0,17,1.91,21.82,5.74,6.14,4.9,9.21,11.86,9.21,20.89,0,9.65-4.12,16.33-12.36,20.01l16.03,33.2ZM224.97,36.98h1.45c2.48,0,4.55-.95,6.21-2.84,1.65-1.9,2.48-4.31,2.48-7.24,0-5.96-3.12-8.95-9.36-8.95h-.78v19.03Z" style="fill: #f7f0ea;"/>
        <path d="M284.65,79.85h-21.57V0h21.57v79.85Z" style="fill: #f7f0ea;"/>
        <path d="M371.64,79.85h-22.55l-1.6-36.41-.67-14.53c-.24,2.79-.52,5.46-.83,7.99-.31,2.53-.69,4.99-1.14,7.37l-6.77,35.58h-17.58l-5.79-35.63c-.35-2.07-.81-5.62-1.4-10.65-.07-.76-.22-2.31-.47-4.65l-.52,14.74-1.91,36.2h-22.96L296.76,0h26.84l4.5,26.89c.38,2.21.72,4.6,1.01,7.19.29,2.59.56,5.4.8,8.43.45-5.07,1.07-9.6,1.86-13.6l5.48-28.91h26.63l7.76,79.85Z" style="fill: #f7f0ea;"/>
        <path d="M374.86,79.85V0h40.08v18.77h-18.51v11.64h16.6v18.05h-16.6v12.21h18.51v19.19h-40.08Z" style="fill: #f7f0ea;"/>
        <path d="M419.91,79.85V0h20.58l10.81,28.03c.59,1.66,1.25,3.55,1.99,5.69.74,2.14,1.56,4.6,2.46,7.4l2.22,7.03c-.79-6.93-1.4-12.86-1.81-17.79-.41-4.93-.62-9.07-.62-12.41V0h20.58v79.85h-20.58l-10.86-29.38c-1.14-3.14-2.16-6.08-3.08-8.82s-1.72-5.35-2.4-7.83c.45,5.62.78,10.52.98,14.69.21,4.17.31,7.83.31,10.96v20.38h-20.58Z" style="fill: #f7f0ea;"/>
        <path d="M510.93,79.85h-21.57V19.13h-11.89V0h45.82v19.13h-12.36v60.71Z" style="fill: #f7f0ea;"/>
      </g>
      <g>
        <path d="M0,98.63h2.72v17.69h10.08v2.39H0v-20.08Z" style="fill: #f7f0ea;"/>
        <path d="M22.39,109.85c.57-.07.94-.31,1.13-.71.11-.22.16-.54.16-.95,0-.84-.3-1.45-.89-1.83s-1.45-.57-2.56-.57c-1.28,0-2.19.35-2.73,1.04-.3.38-.5.96-.59,1.72h-2.3c.05-1.81.63-3.07,1.75-3.78s2.43-1.06,3.91-1.06c1.72,0,3.12.33,4.19.98,1.07.66,1.6,1.68,1.6,3.06v8.44c0,.25.05.46.16.61.1.16.33.23.66.23.11,0,.23,0,.37-.02s.28-.03.44-.06v1.82c-.38.11-.67.18-.88.21s-.47.04-.82.04c-.85,0-1.46-.3-1.85-.9-.2-.32-.34-.77-.42-1.35-.5.66-1.22,1.23-2.16,1.71-.94.48-1.97.72-3.1.72-1.36,0-2.47-.41-3.33-1.24-.86-.82-1.29-1.86-1.29-3.09,0-1.36.42-2.41,1.27-3.15.85-.75,1.96-1.21,3.34-1.38l3.92-.49ZM17.21,116.5c.52.41,1.13.61,1.85.61.87,0,1.7-.2,2.52-.6,1.37-.66,2.05-1.75,2.05-3.26v-1.98c-.3.19-.69.35-1.16.48-.47.13-.94.22-1.39.27l-1.49.19c-.89.12-1.56.31-2.01.56-.76.43-1.14,1.11-1.14,2.05,0,.71.26,1.27.78,1.68Z" style="fill: #f7f0ea;"/>
        <path d="M39.09,104.85c1.03.8,1.66,2.18,1.87,4.14h-2.39c-.15-.9-.48-1.65-1-2.25s-1.35-.9-2.5-.9c-1.57,0-2.69.76-3.36,2.29-.44.99-.66,2.22-.66,3.67s.31,2.7.93,3.7c.62,1,1.59,1.5,2.93,1.5,1.02,0,1.83-.31,2.43-.93s1.01-1.47,1.24-2.55h2.39c-.27,1.94-.96,3.36-2.05,4.26s-2.49,1.35-4.2,1.35c-1.91,0-3.44-.7-4.58-2.1s-1.71-3.15-1.71-5.24c0-2.57.62-4.57,1.87-6s2.84-2.15,4.77-2.15c1.65,0,2.99.4,4.03,1.2Z" style="fill: #f7f0ea;"/>
        <path d="M42.79,104.07h2.34v2.53c.19-.49.66-1.09,1.41-1.8s1.61-1.06,2.58-1.06c.05,0,.12,0,.23.01s.3.03.56.05v2.6c-.15-.03-.28-.05-.4-.05s-.26-.01-.4-.01c-1.24,0-2.19.4-2.86,1.2s-1,1.72-1,2.75v8.42h-2.46v-14.64Z" style="fill: #f7f0ea;"/>
        <path d="M61.95,105.53c1.29,1.26,1.94,3.11,1.94,5.55s-.57,4.31-1.71,5.85c-1.14,1.54-2.91,2.31-5.31,2.31-2,0-3.59-.68-4.77-2.04s-1.76-3.19-1.76-5.48c0-2.46.62-4.42,1.86-5.87,1.24-1.46,2.91-2.19,5-2.19,1.87,0,3.46.63,4.75,1.88ZM60.42,115.26c.6-1.23.9-2.61.9-4.12,0-1.37-.22-2.48-.65-3.33-.68-1.35-1.87-2.02-3.54-2.02-1.49,0-2.57.57-3.25,1.72s-1.01,2.53-1.01,4.15.34,2.85,1.01,3.89,1.75,1.56,3.22,1.56c1.61,0,2.72-.62,3.32-1.85Z" style="fill: #f7f0ea;"/>
        <path d="M67.68,114.12c.07.82.28,1.45.63,1.89.63.79,1.73,1.19,3.29,1.19.93,0,1.75-.2,2.46-.59s1.06-1.01,1.06-1.84c0-.63-.28-1.11-.85-1.44-.36-.2-1.07-.43-2.14-.7l-1.99-.49c-1.27-.31-2.2-.66-2.81-1.04-1.07-.67-1.61-1.59-1.61-2.76,0-1.39.51-2.51,1.52-3.36,1.01-.86,2.37-1.29,4.08-1.29,2.24,0,3.85.65,4.83,1.94.62.82.92,1.7.9,2.65h-2.32c-.05-.55-.25-1.06-.6-1.51-.58-.64-1.58-.97-3.01-.97-.95,0-1.67.18-2.16.53-.49.35-.73.82-.73,1.4,0,.64.32,1.14.97,1.53.37.23.92.43,1.64.6l1.66.4c1.8.43,3.01.84,3.62,1.24.96.63,1.44,1.62,1.44,2.97s-.5,2.43-1.5,3.38-2.53,1.42-4.58,1.42c-2.21,0-3.77-.49-4.68-1.48-.92-.99-1.41-2.21-1.47-3.67h2.37Z" style="fill: #f7f0ea;"/>
        <path d="M80.98,114.12c.07.82.28,1.45.63,1.89.63.79,1.73,1.19,3.29,1.19.93,0,1.75-.2,2.46-.59s1.06-1.01,1.06-1.84c0-.63-.28-1.11-.85-1.44-.36-.2-1.07-.43-2.14-.7l-1.99-.49c-1.27-.31-2.2-.66-2.81-1.04-1.07-.67-1.61-1.59-1.61-2.76,0-1.39.51-2.51,1.52-3.36,1.01-.86,2.37-1.29,4.08-1.29,2.24,0,3.85.65,4.83,1.94.62.82.92,1.7.9,2.65h-2.32c-.05-.55-.25-1.06-.6-1.51-.58-.64-1.58-.97-3.01-.97-.95,0-1.67.18-2.16.53-.49.35-.73.82-.73,1.4,0,.64.32,1.14.97,1.53.37.23.92.43,1.64.6l1.66.4c1.8.43,3.01.84,3.62,1.24.96.63,1.44,1.62,1.44,2.97s-.5,2.43-1.5,3.38-2.53,1.42-4.58,1.42c-2.21,0-3.77-.49-4.68-1.48-.92-.99-1.41-2.21-1.47-3.67h2.37Z" style="fill: #f7f0ea;"/>
        <path d="M101.86,104.47c.97.49,1.71,1.12,2.21,1.89.49.74.82,1.6.98,2.58.15.67.22,1.75.22,3.23h-10.65c.04,1.49.39,2.68,1.04,3.58.65.9,1.66,1.35,3.02,1.35,1.28,0,2.29-.43,3.05-1.28.42-.49.73-1.07.9-1.72h2.42c-.06.54-.28,1.14-.64,1.8s-.76,1.2-1.21,1.62c-.74.73-1.66,1.22-2.75,1.48-.59.15-1.25.22-2,.22-1.81,0-3.35-.66-4.61-1.99-1.26-1.33-1.89-3.18-1.89-5.57s.63-4.26,1.9-5.73c1.27-1.47,2.93-2.2,4.97-2.2,1.03,0,2.03.24,3,.73ZM102.74,110.22c-.1-1.07-.33-1.92-.69-2.56-.67-1.18-1.79-1.78-3.35-1.78-1.12,0-2.06.41-2.82,1.22-.76.82-1.16,1.85-1.21,3.11h8.07Z" style="fill: #f7f0ea;"/>
        <path d="M129.2,98.63v2.39h-6.77v17.69h-2.75v-17.69h-6.77v-2.39h16.28Z" style="fill: #f7f0ea;"/>
        <path d="M129.72,104.07h2.34v2.53c.19-.49.66-1.09,1.41-1.8s1.61-1.06,2.58-1.06c.05,0,.12,0,.23.01s.3.03.56.05v2.6c-.15-.03-.28-.05-.4-.05s-.26-.01-.4-.01c-1.24,0-2.19.4-2.86,1.2s-1,1.72-1,2.75v8.42h-2.46v-14.64Z" style="fill: #f7f0ea;"/>
        <path d="M146.12,109.85c.57-.07.94-.31,1.13-.71.11-.22.16-.54.16-.95,0-.84-.3-1.45-.89-1.83s-1.45-.57-2.56-.57c-1.28,0-2.19.35-2.73,1.04-.3.38-.5.96-.59,1.72h-2.3c.05-1.81.63-3.07,1.75-3.78s2.43-1.06,3.91-1.06c1.72,0,3.12.33,4.19.98,1.07.66,1.6,1.68,1.6,3.06v8.44c0,.25.05.46.16.61.1.16.33.23.66.23.11,0,.23,0,.37-.02s.28-.03.44-.06v1.82c-.38.11-.67.18-.88.21s-.47.04-.82.04c-.85,0-1.46-.3-1.85-.9-.2-.32-.34-.77-.42-1.35-.5.66-1.22,1.23-2.16,1.71-.94.48-1.97.72-3.1.72-1.36,0-2.47-.41-3.33-1.24-.86-.82-1.29-1.86-1.29-3.09,0-1.36.42-2.41,1.27-3.15.85-.75,1.96-1.21,3.34-1.38l3.92-.49ZM140.94,116.5c.52.41,1.13.61,1.85.61.87,0,1.7-.2,2.52-.6,1.37-.66,2.05-1.75,2.05-3.26v-1.98c-.3.19-.69.35-1.16.48-.47.13-.94.22-1.39.27l-1.49.19c-.89.12-1.56.31-2.01.56-.76.43-1.14,1.11-1.14,2.05,0,.71.26,1.27.78,1.68Z" style="fill: #f7f0ea;"/>
        <path d="M153.15,98.63h2.5v2.79h-2.5v-2.79ZM153.15,104.14h2.5v14.57h-2.5v-14.57Z" style="fill: #f7f0ea;"/>
        <path d="M158.67,104.07h2.34v2.08c.69-.86,1.43-1.47,2.2-1.85s1.64-.56,2.58-.56c2.08,0,3.48.72,4.21,2.17.4.79.6,1.93.6,3.4v9.39h-2.5v-9.23c0-.89-.13-1.61-.4-2.16-.44-.91-1.23-1.37-2.38-1.37-.58,0-1.06.06-1.44.18-.67.2-1.27.6-1.78,1.2-.41.48-.68.98-.8,1.5s-.18,1.25-.18,2.21v7.67h-2.46v-14.64Z" style="fill: #f7f0ea;"/>
        <path d="M173.54,98.63h2.5v2.79h-2.5v-2.79ZM173.54,104.14h2.5v14.57h-2.5v-14.57Z" style="fill: #f7f0ea;"/>
        <path d="M179.06,104.07h2.34v2.08c.69-.86,1.43-1.47,2.2-1.85s1.64-.56,2.58-.56c2.08,0,3.48.72,4.21,2.17.4.79.6,1.93.6,3.4v9.39h-2.5v-9.23c0-.89-.13-1.61-.4-2.16-.44-.91-1.23-1.37-2.38-1.37-.58,0-1.06.06-1.44.18-.67.2-1.27.6-1.78,1.2-.41.48-.68.98-.8,1.5s-.18,1.25-.18,2.21v7.67h-2.46v-14.64Z" style="fill: #f7f0ea;"/>
        <path d="M202.07,104.66c.46.32.93.78,1.42,1.39v-1.85h2.27v13.32c0,1.86-.27,3.33-.82,4.4-1.02,1.99-2.94,2.98-5.76,2.98-1.57,0-2.89-.35-3.97-1.06-1.07-.71-1.67-1.81-1.8-3.32h2.5c.12.66.35,1.16.71,1.52.55.55,1.42.82,2.61.82,1.88,0,3.1-.67,3.69-2,.34-.78.5-2.18.48-4.2-.49.75-1.08,1.3-1.77,1.67-.69.36-1.6.55-2.74.55-1.58,0-2.96-.56-4.15-1.69s-1.78-2.99-1.78-5.58c0-2.45.6-4.37,1.79-5.74,1.19-1.38,2.63-2.06,4.32-2.06,1.14,0,2.14.28,3,.85ZM202.37,107.29c-.74-.88-1.69-1.31-2.84-1.31-1.72,0-2.9.81-3.54,2.43-.33.87-.5,2-.5,3.4,0,1.65.33,2.91,1,3.77.67.86,1.56,1.29,2.69,1.29,1.76,0,3-.8,3.71-2.39.4-.9.6-1.96.6-3.16,0-1.81-.37-3.16-1.12-4.03Z" style="fill: #f7f0ea;"/>
      </g>
      <g>
        <path d="M345.57,98.63h9.13c1.5,0,2.74.22,3.72.67,1.85.86,2.78,2.44,2.78,4.74,0,1.2-.25,2.19-.75,2.95s-1.19,1.38-2.08,1.85c.78.32,1.37.74,1.77,1.26s.62,1.36.66,2.53l.1,2.69c.03.77.09,1.33.19,1.71.16.64.46,1.05.88,1.23v.45h-3.34c-.09-.17-.16-.4-.22-.67s-.1-.8-.14-1.59l-.16-3.35c-.06-1.31-.54-2.19-1.42-2.64-.5-.25-1.3-.37-2.38-.37h-6.02v8.61h-2.72v-20.08ZM354.4,107.83c1.24,0,2.22-.25,2.94-.77s1.08-1.43,1.08-2.76c0-1.43-.5-2.41-1.52-2.93-.54-.27-1.26-.41-2.17-.41h-6.46v6.86h6.12Z" style="fill: #f7f0ea;"/>
        <path d="M364.43,98.63h2.5v2.79h-2.5v-2.79ZM364.43,104.14h2.5v14.57h-2.5v-14.57Z" style="fill: #f7f0ea;"/>
        <path d="M379.62,104.85c1.03.8,1.66,2.18,1.87,4.14h-2.39c-.15-.9-.48-1.65-1-2.25s-1.35-.9-2.5-.9c-1.57,0-2.69.76-3.36,2.29-.44.99-.66,2.22-.66,3.67s.31,2.7.93,3.7c.62,1,1.59,1.5,2.93,1.5,1.02,0,1.83-.31,2.43-.93s1.01-1.47,1.24-2.55h2.39c-.27,1.94-.96,3.36-2.05,4.26s-2.49,1.35-4.2,1.35c-1.91,0-3.44-.7-4.58-2.1s-1.71-3.15-1.71-5.24c0-2.57.62-4.57,1.87-6s2.84-2.15,4.77-2.15c1.65,0,2.99.4,4.03,1.2Z" style="fill: #f7f0ea;"/>
        <path d="M383.25,98.56h2.46v7.49c.58-.74,1.11-1.26,1.57-1.56.79-.52,1.78-.78,2.97-.78,2.12,0,3.56.74,4.32,2.23.41.81.62,1.94.62,3.38v9.39h-2.53v-9.23c0-1.08-.14-1.86-.41-2.37-.45-.8-1.29-1.2-2.52-1.2-1.02,0-1.95.35-2.78,1.05s-1.24,2.03-1.24,3.98v7.77h-2.46v-20.15Z" style="fill: #f7f0ea;"/>
        <path d="M398.12,104.07h2.43v2.08c.58-.72,1.11-1.24,1.59-1.57.81-.56,1.73-.83,2.76-.83,1.17,0,2.11.29,2.82.86.4.33.77.81,1.09,1.45.55-.78,1.19-1.37,1.93-1.74s1.57-.57,2.49-.57c1.97,0,3.31.71,4.02,2.13.38.77.57,1.8.57,3.09v9.75h-2.56v-10.17c0-.98-.24-1.65-.73-2.01s-1.08-.55-1.78-.55c-.97,0-1.8.32-2.5.97s-1.05,1.73-1.05,3.24v8.52h-2.5v-9.56c0-.99-.12-1.72-.36-2.17-.37-.68-1.07-1.03-2.09-1.03-.93,0-1.78.36-2.54,1.08s-1.14,2.02-1.14,3.91v7.77h-2.46v-14.64Z" style="fill: #f7f0ea;"/>
        <path d="M431.36,105.53c1.29,1.26,1.94,3.11,1.94,5.55s-.57,4.31-1.71,5.85c-1.14,1.54-2.91,2.31-5.31,2.31-2,0-3.59-.68-4.77-2.04s-1.76-3.19-1.76-5.48c0-2.46.62-4.42,1.86-5.87,1.24-1.46,2.91-2.19,5-2.19,1.87,0,3.46.63,4.75,1.88ZM429.83,115.26c.6-1.23.9-2.61.9-4.12,0-1.37-.22-2.48-.65-3.33-.68-1.35-1.87-2.02-3.54-2.02-1.49,0-2.57.57-3.25,1.72s-1.01,2.53-1.01,4.15.34,2.85,1.01,3.89,1.75,1.56,3.22,1.56c1.61,0,2.72-.62,3.32-1.85Z" style="fill: #f7f0ea;"/>
        <path d="M435.62,104.07h2.34v2.08c.69-.86,1.43-1.47,2.2-1.85s1.64-.56,2.58-.56c2.08,0,3.48.72,4.21,2.17.4.79.6,1.93.6,3.4v9.39h-2.5v-9.23c0-.89-.13-1.61-.4-2.16-.44-.91-1.23-1.37-2.38-1.37-.58,0-1.06.06-1.44.18-.67.2-1.27.6-1.78,1.2-.41.48-.68.98-.8,1.5s-.18,1.25-.18,2.21v7.67h-2.46v-14.64Z" style="fill: #f7f0ea;"/>
        <path d="M458.54,104.52c.44.27.93.75,1.48,1.44v-7.4h2.37v20.15h-2.21v-2.04c-.57.9-1.25,1.55-2.03,1.96-.78.4-1.68.6-2.68.6-1.62,0-3.03-.69-4.22-2.06s-1.78-3.2-1.78-5.48c0-2.13.54-3.98,1.63-5.54s2.64-2.34,4.65-2.34c1.12,0,2.05.24,2.81.71ZM453.04,115.5c.66,1.06,1.72,1.59,3.18,1.59,1.13,0,2.07-.49,2.8-1.47.73-.98,1.09-2.39,1.09-4.22s-.38-3.22-1.13-4.11-1.68-1.33-2.79-1.33c-1.23,0-2.23.47-3,1.42s-1.15,2.34-1.15,4.18c0,1.57.33,2.88.99,3.94Z" style="fill: #f7f0ea;"/>
        <path d="M465.88,121.58c.63-.11,1.07-.55,1.33-1.33.14-.41.21-.81.21-1.19,0-.06,0-.12,0-.17s-.02-.11-.03-.17h-1.49v-2.98h2.93v2.76c0,1.08-.22,2.04-.66,2.86s-1.19,1.33-2.27,1.52v-1.29Z" style="fill: #f7f0ea;"/>
        <path d="M481.44,98.63l5.77,17.1,5.7-17.1h3.05l-7.33,20.08h-2.88l-7.31-20.08h3.01Z" style="fill: #f7f0ea;"/>
        <path d="M501.6,98.63h3.08l7.29,20.08h-2.98l-2.04-6.02h-7.94l-2.17,6.02h-2.79l7.56-20.08ZM506.07,110.48l-3.05-8.87-3.24,8.87h6.29Z" style="fill: #f7f0ea;"/>
      </g>
    </g>
  </g>
</svg>