<svg width="1303" height="170" viewBox="0 0 1303 170" fill="none" xmlns="http://www.w3.org/2000/svg">
<path d="M77.0119 166.126H-3.05176e-05V2.90625H43.9878V126.908H77.0119V166.126Z" fill="#ED1233"/>
<path d="M204.478 166.126H159L155.727 145.41H126.082L122.49 166.126H77.0119L116.157 2.90625H169.964L204.478 166.126ZM150.564 110.404L147.717 91.3682C147.717 91.3682 147.504 90.3551 147.291 88.5154C147.158 86.9691 146.413 80.837 145.083 70.1192C144.95 68.9194 144.763 67.2931 144.55 65.2135C144.337 63.1339 144.045 60.5211 143.699 57.3485L142.315 41.9116C142.182 43.4046 141.969 45.0576 141.73 46.8706C141.49 48.7102 141.224 50.7098 140.931 52.896C140.426 57.2685 140.08 60.3079 139.867 61.9875C139.654 63.6672 139.521 64.707 139.441 65.0536L136.381 84.8095L131.937 110.378H150.511L150.564 110.404Z" fill="#ED1233"/>
<path d="M290.9 115.963L288.372 163.1C278.606 167.046 269.851 169.019 262.107 169.019C243.879 169.019 228.551 162.327 216.097 148.943C202.179 133.932 195.207 112.684 195.207 85.1958C195.207 59.4677 201.754 38.8319 214.82 23.2618C227.912 7.7716 245.369 0.0131836 267.243 0.0131836C274.348 0.0131836 281.586 1.34624 288.984 4.03903V50.6695C282.438 44.1108 275.732 40.8315 268.84 40.8315C259.845 40.8315 252.793 44.6707 247.737 52.3492C242.681 60.1076 240.153 70.8254 240.153 84.4759C240.153 91.1146 240.792 97.0334 242.042 102.232C243.32 107.458 245.129 111.857 247.471 115.456C249.839 119.056 252.74 121.802 256.173 123.695C259.632 125.588 263.571 126.547 267.988 126.547C275.572 126.547 283.21 123.028 290.873 115.99L290.9 115.963Z" fill="#ED1233"/>
<path d="M410.55 166.126H362.97L341.229 107.978C341.016 106.992 340.643 105.685 340.111 104.059C339.579 102.433 338.94 100.513 338.168 98.2468L338.488 109.018V166.1H294.713V2.90625H339.765C359.59 2.90625 374.439 6.82545 384.285 14.6372C396.792 24.6351 403.072 38.8722 403.072 57.3485C403.072 77.0778 394.663 90.7283 377.845 98.2468L410.55 166.1V166.126ZM338.701 78.4908H341.654C346.711 78.4908 350.942 76.5445 354.321 72.6787C357.701 68.8128 359.377 63.8805 359.377 57.8817C359.377 45.6975 353.017 39.5921 340.271 39.5921H338.701V78.4908Z" fill="#ED1233"/>
<path d="M529.313 85.0891C529.313 109.964 523.645 130.2 512.336 145.77C501.079 161.287 486.417 169.019 468.348 169.019C452.302 169.019 438.57 163.073 427.101 151.156C412.678 136.065 405.466 113.457 405.466 83.3028C405.466 53.149 412.997 32.3266 428.032 17.023C439.209 5.66536 452.461 0.0131836 467.816 0.0131836C486.603 0.0131836 501.532 7.69161 512.655 23.0485C523.778 38.4053 529.313 59.0944 529.313 85.0891ZM483.623 85.4091C483.623 55.8685 478.407 41.1248 468.002 41.1248C462.786 41.1248 458.635 44.9907 455.548 52.7491C452.514 59.9476 451.024 70.5054 451.024 84.4493C451.024 98.3931 452.461 108.844 455.309 116.416C458.156 123.988 462.121 127.774 467.177 127.774C472.233 127.774 476.384 124.041 479.205 116.576C482.159 109.111 483.649 98.713 483.649 85.3824L483.623 85.4091Z" fill="#ED1233"/>
<path d="M529.926 162.1V110.831C538.574 122.668 547.941 128.587 558 128.587C561.805 128.587 564.892 127.574 567.287 125.574C569.682 123.575 570.88 121.042 570.88 118.029C570.88 113.657 568.272 109.391 563.083 105.232L555.898 99.633C551.108 96.0337 547.036 92.4611 543.657 88.9152C540.277 85.3692 537.536 81.69 535.434 77.9307C533.332 74.1715 531.788 70.279 530.804 66.2531C529.819 62.2273 529.314 58.0148 529.314 53.5624C529.314 45.9373 531.07 37.9922 534.583 29.6739C536.339 25.8081 538.388 22.2621 540.703 19.0628C543.018 15.8634 545.706 13.0107 548.713 10.5578C557.016 3.51928 567.021 0 578.783 0C589.268 0 599.806 2.77277 610.424 8.34496V58.2281C606.831 52.6559 602.76 48.2835 598.183 45.0575C593.605 41.8581 589.108 40.2584 584.664 40.2584C581.285 40.2584 578.517 41.2449 576.335 43.2178C574.073 45.1108 572.955 47.4036 572.955 50.0964C572.955 54.4689 575.936 58.8147 581.923 63.1071L588.895 68.2794C598.183 74.9714 604.835 81.8499 608.827 88.8885C612.898 95.9271 614.947 104.192 614.947 113.63C614.947 129.707 610.051 142.957 600.285 153.382C590.519 163.807 578.118 169.032 563.136 169.032C552.784 169.032 541.714 166.739 529.899 162.154L529.926 162.1Z" fill="#ED1233"/>
<path d="M615.559 162.1V110.831C624.208 122.668 633.575 128.587 643.634 128.587C647.439 128.587 650.526 127.574 652.921 125.574C655.316 123.575 656.514 121.042 656.514 118.029C656.514 113.657 653.906 109.391 648.717 105.232L641.532 99.633C636.742 96.0337 632.67 92.4611 629.291 88.9152C625.911 85.3692 623.17 81.69 621.068 77.9308C618.966 74.1715 617.422 70.279 616.438 66.2531C615.453 62.2273 614.947 58.0148 614.947 53.5624C614.947 45.9373 616.704 37.9922 620.216 29.6739C621.973 25.8081 624.022 22.2621 626.337 19.0628C628.652 15.8634 631.34 13.0107 634.347 10.5578C642.649 3.51928 652.655 0 664.417 0C674.902 0 685.44 2.77277 696.057 8.34496V58.2281C692.465 52.6559 688.394 48.2835 683.816 45.0575C679.239 41.8581 674.742 40.2584 670.298 40.2584C666.918 40.2584 664.151 41.2449 661.969 43.2178C659.707 45.1108 658.589 47.4037 658.589 50.0964C658.589 54.4689 661.57 58.8147 667.557 63.1071L674.529 68.2794C683.816 74.9714 690.469 81.85 694.461 88.8885C698.532 95.9271 700.581 104.192 700.581 113.63C700.581 129.707 695.685 142.957 685.919 153.382C676.152 163.807 663.752 169.032 648.77 169.032C638.418 169.032 627.348 166.739 615.533 162.154L615.559 162.1Z" fill="#ED1233"/>
<path d="M704.394 166.126V2.90625H786.169V41.2717H748.408V65.0536H782.284V101.953H748.408V126.908H786.169V166.126H704.394Z" fill="#ED1233"/>
<path d="M916.56 166.126H839.548V2.90625H883.536V126.908H916.56V166.126Z" fill="#ED1233"/>
<path d="M1044.03 166.126H998.548L995.275 145.41H965.63L962.038 166.126H916.56L955.704 2.90625H1009.51L1044.03 166.126ZM990.112 110.404L987.265 91.3682C987.265 91.3682 987.052 90.3551 986.839 88.5154C986.706 86.9691 985.961 80.837 984.63 70.1192C984.497 68.9194 984.311 67.2931 984.098 65.2135C983.885 63.1339 983.593 60.5211 983.247 57.3485L981.863 41.9116C981.73 43.4046 981.517 45.0576 981.277 46.8706C981.038 48.7102 980.772 50.7098 980.479 52.896C979.973 57.2685 979.627 60.3079 979.415 61.9875C979.202 63.6672 979.069 64.707 978.989 65.0536L975.929 84.8095L971.485 110.378H990.059L990.112 110.404Z" fill="#ED1233"/>
<path d="M1044.03 166.126V2.90625H1095.2C1114.33 2.90625 1128.52 7.14538 1137.72 15.597C1147.09 24.2619 1151.75 35.4596 1151.75 49.2168C1151.75 69.6659 1141.61 80.7037 1121.36 82.41C1132.88 84.0897 1141.34 87.9022 1146.74 93.821C1152.12 99.7398 1154.81 108.271 1154.81 119.389C1154.81 133.413 1150.28 144.691 1141.21 153.222C1132.21 161.834 1120.35 166.126 1105.66 166.126H1044.05H1044.03ZM1088.01 66.3333H1090.97C1096.24 66.3333 1100.41 65.1069 1103.47 62.6274C1106.53 60.1479 1108.05 56.7086 1108.05 52.2562C1108.05 42.8181 1102.89 38.0991 1092.54 38.0991C1092.03 38.0991 1091.42 38.0991 1090.7 38.1524C1089.96 38.179 1089.08 38.2324 1088.01 38.3124V66.3333ZM1088.01 130.693C1088.87 130.773 1089.58 130.827 1090.22 130.853C1090.86 130.88 1091.39 130.907 1091.79 130.907C1097.27 130.907 1101.67 129.467 1104.94 126.561C1108.21 123.682 1109.83 119.789 1109.83 114.937C1109.83 110.084 1108.21 106.272 1104.94 103.526C1101.67 100.78 1097.19 99.3932 1091.5 99.3932H1088.01V130.693Z" fill="#ED1233"/>
<path d="M1256.38 36.8193C1269.1 36.8193 1280.03 41.5384 1289.19 50.9498C1298.4 60.3879 1303 71.5856 1303 84.5962C1303 97.6069 1298.37 108.991 1289.14 118.243C1279.9 127.494 1268.7 132.213 1255.71 132.213C1242.73 132.213 1231.52 127.574 1222.13 118.243C1212.84 108.938 1208.19 97.7136 1208.19 84.5962C1208.19 71.4789 1212.82 59.9346 1222.13 50.7098C1231.39 41.4317 1242.78 36.8193 1256.38 36.8193ZM1256.19 46.7373C1245.81 46.7373 1237.01 50.4166 1229.79 57.7484C1222.64 65.0536 1219.04 73.9851 1219.04 84.5962C1219.04 95.2074 1222.64 103.846 1229.79 111.284C1237.01 118.669 1245.63 122.349 1255.66 122.349C1265.69 122.349 1274.34 118.669 1281.45 111.284C1288.58 103.899 1292.14 94.9941 1292.14 84.5429C1292.14 74.0917 1288.6 65.3468 1281.53 57.935C1274.47 50.4699 1266.04 46.764 1256.19 46.764V46.7373ZM1278.86 111.924H1260.21L1253.24 94.4076V111.924H1235.94V57.1618H1252.76C1260.42 57.1618 1266.22 58.7082 1270.11 61.7742C1273.99 64.8403 1275.96 69.4527 1275.96 75.6114C1275.96 82.0901 1273.17 86.5425 1267.58 89.0487L1267.16 89.2353L1278.84 111.951L1278.86 111.924ZM1253.32 82.1167C1254.97 82.1167 1256.3 81.5302 1257.31 80.3304C1258.32 79.1307 1258.83 77.611 1258.83 75.7181C1258.83 72.1988 1256.99 70.3592 1253.34 70.1459V82.0901L1253.32 82.1167Z" fill="#ED1233"/>
</svg>
